<?xml version="1.0" encoding="UTF-8"?>
<!-- Generator: Adobe Illustrator 17.0.0, SVG Export Plug-In . SVG Version: 6.00 Build 0)  -->
<!DOCTYPE svg PUBLIC "-//W3C//DTD SVG 1.1//EN" "http://www.w3.org/Graphics/SVG/1.1/DTD/svg11.dtd">
<svg version="1.1" id="Layer_1" xmlns="http://www.w3.org/2000/svg" xmlns:xlink="http://www.w3.org/1999/xlink" x="0px" y="0px" width="389px" height="80px" viewBox="0 0 612 126" enable-background="new 0 0 612 126" xml:space="preserve">
<g>
	<path fill="#4C4D4F" d="M17.697,116.589c-2.113-0.145-4.17-0.437-6.172-0.874c-2.004-0.437-3.916-1.164-5.735-2.185   c-1.748-0.946-3.132-2.53-4.151-4.752c-1.021-2.221-1.529-4.479-1.529-6.773s0.563-4.351,1.693-6.172   c1.128-1.819,2.967-2.876,5.517-3.168c1.82-0.218,3.477,0.256,4.971,1.42c1.492,1.166,2.458,2.586,2.895,4.26   c0.145,0.874,0.219,1.748,0.219,2.622s-0.292,1.712-0.874,2.512c-0.437,0.656-1.021,1.384-1.748,2.185   c-0.729,0.802-0.911,1.712-0.546,2.731c0.363,0.802,1.109,1.512,2.239,2.13c1.128,0.62,2.093,1.002,2.895,1.147   c1.237,0.219,2.458,0.311,3.659,0.273c1.202-0.036,2.42-0.126,3.66-0.273c4.733-0.508,9.139-2.185,13.218-5.025   c2.256-1.529,4.332-3.277,6.227-5.243c1.893-1.966,3.677-4.059,5.353-6.281c1.675-2.221,3.24-4.515,4.697-6.882   c1.456-2.366,2.84-4.678,4.151-6.937c2.256-3.859,4.515-7.664,6.773-11.416c2.256-3.75,4.55-7.519,6.882-11.306   c1.674-2.912,3.441-5.752,5.298-8.521c1.857-2.767,3.878-5.424,6.063-7.975c2.111-2.475,4.26-4.788,6.445-6.937   c2.185-2.147,4.66-4.059,7.428-5.735c2.112-1.238,4.296-2.42,6.555-3.55c2.256-1.128,4.624-1.874,7.101-2.24   c0.508-0.071,1.218-0.126,2.13-0.164c0.91-0.036,1.729,0.038,2.458,0.218c0.727,0.183,1.219,0.511,1.475,0.983   c0.254,0.475,0.017,1.147-0.71,2.021c-0.437,0.51-0.966,0.874-1.584,1.092c-0.62,0.218-1.22,0.51-1.802,0.874   c-1.603,1.021-3.114,2.204-4.534,3.55c-1.42,1.348-2.75,2.75-3.987,4.206c-4.588,5.243-8.63,10.961-12.125,17.15   c-3.496,6.191-6.955,12.344-10.377,18.461c-1.021,1.748-2.004,3.496-2.95,5.243c-0.947,1.748-1.93,3.533-2.949,5.353   c-2.769,5.025-6.136,9.632-10.104,13.818c-3.97,4.189-8.357,7.848-13.164,10.979c-4.224,2.695-8.722,4.735-13.491,6.118   c-4.771,1.384-9.596,2.332-14.474,2.84c-1.166,0.147-2.332,0.237-3.496,0.273C20.026,116.681,18.861,116.662,17.697,116.589z    M84.769,116.807c-0.655-0.072-1.311-0.126-1.966-0.164c-0.655-0.036-1.348-0.126-2.075-0.273c-1.748-0.363-3.479-0.8-5.189-1.311   c-1.712-0.509-3.37-1.202-4.97-2.076c-1.166-0.655-2.496-1.584-3.987-2.786c-1.494-1.202-2.496-2.458-3.004-3.769   c-0.146-0.29-0.273-0.582-0.382-0.874c-0.109-0.29-0.237-0.546-0.382-0.765c-0.365-0.727-0.401-1.475-0.109-2.239   c0.29-0.765,0.727-1.219,1.311-1.366c1.238-0.218,2.185,0.328,2.84,1.639c0.364,0.729,0.946,1.567,1.748,2.513   c0.8,0.947,1.529,1.676,2.185,2.185c2.256,1.748,4.733,2.695,7.428,2.84c2.693,0.146,5.353-0.236,7.975-1.147   c2.622-0.91,5.08-2.221,7.374-3.933c2.294-1.71,4.206-3.55,5.735-5.517c1.456-1.966,2.786-4.187,3.987-6.664   c1.202-2.475,2.057-5.025,2.567-7.647c0.509-2.622,0.601-5.243,0.273-7.865c-0.328-2.622-1.256-5.025-2.786-7.21   c-1.458-2.111-3.37-3.586-5.735-4.424c-2.367-0.836-4.716-1.401-7.046-1.693c-2.768-0.219-3.533-1.347-2.294-3.387   c0.364-0.582,0.801-0.874,1.311-0.874c5.025-0.364,9.867-1.401,14.529-3.114c4.66-1.71,8.702-4.569,12.125-8.575   c0.945-1.019,1.765-2.147,2.458-3.386c0.691-1.237,1.328-2.475,1.912-3.714c1.311-2.767,1.966-5.553,1.966-8.357   c0-2.803-0.529-5.424-1.584-7.865c-1.057-2.439-2.641-4.605-4.752-6.5c-2.113-1.893-4.625-3.313-7.538-4.26   c-3.569-1.093-7.264-1.565-11.088-1.42c-3.823,0.147-7.556,0.51-11.197,1.092c-3.059,0.511-6.082,1.202-9.067,2.076   c-2.987,0.874-5.899,1.931-8.739,3.168c-5.244,2.185-10.014,5.08-14.311,8.685c-4.298,3.605-8.083,7.739-11.361,12.398   c-1.603,2.185-2.914,4.552-3.933,7.101c-1.021,2.55-1.676,5.172-1.966,7.865c-0.218,1.895-0.218,3.97,0,6.227   c0.219,2.258,1.093,4.115,2.622,5.571c1.748,1.603,3.586,2.477,5.517,2.622c1.929,0.147,3.859-0.145,5.79-0.874   c1.929-0.727,3.804-1.693,5.625-2.895c1.82-1.202,3.496-2.312,5.025-3.332c0.728-0.509,1.53-0.8,2.403-0.874   c0.874-0.072,1.311,0.546,1.311,1.857c-0.073,1.166-0.638,2.185-1.693,3.059c-1.056,0.874-1.985,1.603-2.786,2.185   c-1.603,1.092-3.241,2.185-4.916,3.277c-1.676,1.092-3.405,2.059-5.189,2.895c-1.785,0.838-3.624,1.475-5.517,1.912   c-1.895,0.437-3.861,0.584-5.899,0.437c-3.787-0.218-7.046-1.51-9.777-3.878c-2.731-2.366-4.424-5.443-5.08-9.23   c-0.292-1.893-0.365-3.895-0.218-6.008c0.145-2.111,0.473-4.113,0.983-6.008c0.656-2.548,1.601-5.134,2.84-7.756   c1.164-2.33,2.494-4.588,3.987-6.772c1.492-2.185,3.223-4.151,5.189-5.899c1.893-1.674,3.859-3.403,5.899-5.189   c2.038-1.784,4.151-3.332,6.335-4.643c1.893-1.164,3.824-2.311,5.79-3.441c1.966-1.128,4.004-2.13,6.117-3.004   c4.151-1.819,8.374-3.258,12.672-4.315c4.296-1.055,8.63-1.947,12.999-2.676c2.33-0.363,4.733-0.637,7.21-0.819   c2.475-0.181,4.878-0.09,7.21,0.273c0.218,0.073,0.655,0.128,1.311,0.164c0.656,0.038,1.347,0.128,2.076,0.273   c2.403,0.292,4.824,0.71,7.264,1.256c2.439,0.546,4.788,1.294,7.046,2.24c2.257,0.947,4.387,2.13,6.391,3.55   c2.002,1.42,3.805,3.151,5.407,5.188c2.985,3.714,4.605,7.811,4.861,12.29c0.254,4.479-0.492,8.867-2.24,13.163   c-0.874,2.258-2.113,4.279-3.714,6.063c-1.603,1.785-3.424,3.332-5.462,4.643c-2.769,1.821-5.809,3.241-9.122,4.26   c-3.314,1.021-6.573,1.931-9.777,2.731c2.256,1.458,4.37,3.151,6.336,5.08c1.966,1.931,3.567,4.134,4.807,6.609   c1.164,2.55,1.912,5.172,2.239,7.865c0.328,2.695,0.29,5.39-0.109,8.083c-0.401,2.695-1.166,5.281-2.294,7.756   c-1.13,2.477-2.604,4.771-4.424,6.882c-1.966,2.332-4.224,4.26-6.772,5.79c-3.059,1.748-6.354,3.059-9.886,3.933   C91.887,116.589,88.336,116.952,84.769,116.807z"/>
	<path fill="#4C4D4F" d="M104.541,115.824c-0.437-1.019-0.291-1.893,0.437-2.622c0.729-0.727,1.494-1.311,2.294-1.748   c0.947-0.582,1.912-1.147,2.895-1.693c0.983-0.546,1.948-1.183,2.895-1.912c1.966-1.529,3.769-3.258,5.407-5.189   c1.639-1.929,3.149-3.949,4.533-6.063c1.093-1.601,2.202-3.149,3.332-4.643c1.128-1.492,2.239-3.04,3.332-4.643   c1.093-1.675,2.147-3.332,3.168-4.971c1.019-1.638,2.076-3.294,3.168-4.97c1.311-2.038,2.475-4.132,3.496-6.281   c1.019-2.147,2.147-4.242,3.387-6.281c0.582-1.019,1.218-1.784,1.912-2.294c0.691-0.509,1.62-0.363,2.786,0.437   c2.548,1.676,5.17,2.367,7.865,2.076c2.694-0.291,5.425-0.836,8.193-1.639c0.8-0.219,1.565-0.181,2.294,0.109   c0.727,0.292,1.055,0.947,0.983,1.966c-0.073,1.021-0.546,1.985-1.42,2.895c-0.874,0.912-1.603,1.731-2.185,2.458   c-0.874,1.021-1.712,2.021-2.512,3.004c-0.802,0.983-1.603,1.985-2.403,3.004c-3.206,4.298-6.082,8.63-8.63,13   c-0.802,1.311-1.548,2.622-2.239,3.933c-0.693,1.311-1.33,2.622-1.912,3.933c-0.219,0.365-0.546,1.075-0.983,2.13   c-0.437,1.057-0.802,2.167-1.092,3.332c-0.292,1.166-0.42,2.223-0.382,3.168c0.036,0.947,0.454,1.529,1.256,1.748   c0.8,0.218,1.584,0.201,2.349-0.055c0.765-0.254,1.51-0.618,2.239-1.092c0.727-0.473,1.401-1.019,2.021-1.639   c0.618-0.618,1.183-1.183,1.693-1.693c2.257-2.33,4.315-4.842,6.172-7.538c1.857-2.693,3.731-5.315,5.625-7.865   c0.364-0.508,0.855-1.201,1.475-2.075c0.618-0.874,1.292-1.273,2.021-1.202c0.874,0.073,1.256,0.492,1.147,1.256   c-0.109,0.765-0.419,1.603-0.928,2.512c-0.51,0.912-1.075,1.767-1.693,2.567c-0.62,0.802-1.038,1.311-1.256,1.529   c-1.021,1.311-2.04,2.604-3.059,3.878c-1.021,1.275-2.04,2.531-3.059,3.769c-0.802,1.092-1.639,2.204-2.513,3.332   c-0.874,1.13-1.748,2.204-2.622,3.222c-1.895,2.185-3.987,4.206-6.281,6.063s-4.935,3.078-7.92,3.66   c-1.021,0.146-2.058,0.183-3.113,0.109c-1.056-0.072-2.021-0.29-2.895-0.655c-0.874-0.364-1.657-0.891-2.349-1.584   c-0.693-0.691-1.185-1.584-1.475-2.676c-0.366-1.311-0.511-2.603-0.437-3.878c0.071-1.273,0.29-2.53,0.655-3.769   c0.364-1.237,0.8-2.475,1.311-3.714c0.508-1.237,1.055-2.403,1.638-3.496c1.601-3.277,3.677-6.336,6.227-9.176   c2.548-2.84,5.097-5.534,7.646-8.083c0.437-0.437,1.109-0.983,2.021-1.639c0.91-0.655,1.475-1.273,1.693-1.857   c0.219-0.437,0.236-0.71,0.055-0.819c-0.183-0.109-0.437-0.164-0.765-0.164s-0.693,0.038-1.092,0.109   c-0.401,0.073-0.71,0.109-0.929,0.109c-0.729,0-1.42-0.181-2.075-0.546c-0.656-0.363-1.349-0.618-2.076-0.765   c-1.021-0.145-1.802,0.074-2.349,0.656c-0.546,0.583-1.075,1.275-1.584,2.075c-0.655,1.021-1.311,2.076-1.966,3.168   s-1.311,2.185-1.966,3.277c-1.384,2.332-2.786,4.606-4.206,6.827c-1.42,2.223-2.933,4.424-4.533,6.609   c-0.874,1.239-1.786,2.441-2.731,3.605c-0.948,1.166-1.931,2.332-2.95,3.496c-0.292,0.292-0.838,0.912-1.639,1.857   c-0.802,0.948-1.767,2.004-2.895,3.168c-1.13,1.166-2.349,2.332-3.66,3.496c-1.311,1.166-2.55,2.149-3.714,2.95   c-1.164,0.802-2.22,1.275-3.167,1.42C105.562,116.952,104.906,116.626,104.541,115.824z"/>
	<path fill="#4C4D4F" d="M216.729,86.439c0.874-0.727,1.601-0.765,2.185-0.109c0.29,0.365,0.399,0.784,0.328,1.256   c-0.073,0.475-0.237,0.966-0.492,1.475c-0.256,0.51-0.546,0.983-0.874,1.42c-0.328,0.437-0.601,0.802-0.819,1.092   c-0.584,1.021-1.221,1.966-1.912,2.84c-0.693,0.874-1.439,1.785-2.24,2.731c-1.529,1.895-3.077,3.787-4.643,5.68   c-1.567,1.895-3.187,3.751-4.861,5.571c-1.458,1.676-3.097,3.277-4.916,4.806c-1.821,1.53-3.823,2.586-6.008,3.168   c-1.458,0.365-3.059,0.401-4.806,0.109c-1.748-0.29-3.132-1.092-4.151-2.403c-0.947-1.164-1.403-2.657-1.365-4.479   c0.036-1.82,0.235-3.422,0.601-4.807c0.291-1.311,0.399-2.021,0.328-2.13c-0.074-0.109-0.437,0.237-1.093,1.038   c-0.292,0.292-0.748,0.783-1.365,1.475c-0.62,0.693-1.256,1.33-1.912,1.912c-1.966,2.113-3.933,3.933-5.899,5.462   c-1.092,0.802-2.223,1.622-3.387,2.458c-1.166,0.838-2.44,1.403-3.823,1.693c-0.802,0.146-1.693,0.235-2.676,0.273   c-0.983,0.036-1.876-0.09-2.676-0.382c-0.365-0.145-0.71-0.29-1.038-0.437c-0.328-0.145-0.674-0.328-1.038-0.546   c-0.655-0.363-1.22-0.983-1.693-1.857c-0.475-0.874-0.784-1.674-0.929-2.403c-0.437-1.819-0.492-3.605-0.164-5.353   c0.328-1.748,0.855-3.477,1.584-5.189c0.727-1.71,1.565-3.349,2.513-4.916c0.945-1.565,1.857-3.113,2.731-4.643   c1.019-1.675,2.076-3.368,3.168-5.08c1.092-1.71,2.147-3.441,3.168-5.189c0.945-1.529,1.912-3.059,2.895-4.588   c0.983-1.529,1.874-3.13,2.676-4.807c0.364-0.655,0.673-1.292,0.929-1.912c0.254-0.618,0.454-1.292,0.601-2.021   c0.219-1.019,0.345-1.966,0.383-2.84c0.036-0.874,0.672-1.456,1.912-1.748c0.945-0.219,1.874-0.254,2.786-0.109   c0.91,0.147,1.838,0.218,2.785,0.218c0.291,0,0.728-0.054,1.311-0.164c0.582-0.109,1.164-0.181,1.748-0.219   c0.582-0.036,1.109,0.019,1.584,0.164c0.473,0.147,0.782,0.437,0.928,0.874c0.364,0.802,0.382,1.785,0.055,2.949   c-0.328,1.166-0.638,2.149-0.929,2.95c-0.729,1.895-1.603,3.697-2.622,5.407c-1.021,1.712-2.04,3.405-3.059,5.08   c-1.166,1.895-2.277,3.788-3.332,5.68c-1.056,1.895-2.203,3.788-3.441,5.681c-1.239,1.895-2.458,3.769-3.659,5.625   c-1.202,1.857-2.313,3.807-3.332,5.844c-0.365,0.802-0.765,1.786-1.202,2.95c-0.437,1.166-0.401,2.149,0.109,2.949   c0.655,1.021,1.511,1.349,2.567,0.983c1.055-0.364,2.166-0.983,3.332-1.857c1.164-0.874,2.221-1.82,3.168-2.84   c0.945-1.019,1.639-1.748,2.075-2.185c0.656-0.655,1.238-1.365,1.748-2.13c0.509-0.765,1.055-1.511,1.639-2.239   c1.019-1.238,2.002-2.513,2.949-3.824c0.946-1.311,1.893-2.622,2.84-3.933c1.237-1.674,2.475-3.567,3.714-5.68   c1.748-2.767,3.496-5.588,5.244-8.466c1.748-2.876,3.13-5.916,4.151-9.122c0.146-0.509,0.309-0.983,0.492-1.42   c0.181-0.437,0.309-0.728,0.382-0.874c0.219-0.509,0.399-0.91,0.546-1.202c0.145-0.29,0.473-0.582,0.983-0.874   c0.727-0.29,1.565-0.509,2.513-0.655c0.655-0.145,1.311-0.2,1.966-0.164c0.655,0.038,1.311,0.092,1.966,0.164   c0.727,0.073,1.437,0.055,2.13-0.055c0.691-0.109,1.401-0.164,2.13-0.164c0.727,0,1.219,0.164,1.475,0.492   c0.254,0.328,0.382,0.729,0.382,1.202c0,0.475-0.073,1.002-0.218,1.584c-0.147,0.583-0.292,1.092-0.437,1.529   c-0.219,0.947-0.601,1.857-1.147,2.731c-0.546,0.874-1.075,1.748-1.584,2.622c-1.166,1.966-2.294,3.752-3.387,5.353   c-1.895,2.769-3.624,5.645-5.188,8.63c-1.567,2.987-3.26,5.863-5.08,8.63c-1.676,2.55-3.059,5.281-4.151,8.193   c-1.458,3.861-1.384,5.936,0.219,6.227c0.8,0.218,1.565,0.055,2.294-0.492c0.727-0.546,1.382-1.038,1.966-1.475   c0.727-0.582,1.382-1.202,1.966-1.857c0.582-0.655,1.202-1.273,1.857-1.857c0.582-0.655,1.128-1.273,1.639-1.857   c0.509-0.582,1.055-1.202,1.639-1.857c1.529-1.893,2.985-3.75,4.37-5.571c1.382-1.819,2.693-3.75,3.933-5.79   c0.145-0.29,0.399-0.673,0.765-1.147C215.892,87.222,216.293,86.804,216.729,86.439z"/>
	<path fill="#4C4D4F" d="M237.595,118.228c-0.874-0.074-1.731-0.219-2.567-0.437c-0.838-0.219-1.548-0.584-2.13-1.092   c-0.947-0.874-1.584-1.82-1.912-2.84c-0.328-1.019-0.475-2.093-0.437-3.223c0.036-1.128,0.218-2.239,0.546-3.332   c0.328-1.093,0.71-2.147,1.147-3.168c1.237-2.693,2.639-5.261,4.206-7.702c1.565-2.439,3.185-4.861,4.861-7.264   c0.945-1.456,1.893-2.912,2.84-4.37c0.946-1.456,1.893-2.912,2.84-4.37c0.437-0.655,0.983-1.382,1.639-2.185   c0.655-0.801,1.273-1.639,1.857-2.513c0.582-0.874,1.019-1.765,1.311-2.676c0.29-0.91,0.254-1.765-0.109-2.567   c-0.365-0.727-0.893-1.093-1.584-1.093c-0.693,0-1.42,0.164-2.185,0.492s-1.513,0.748-2.24,1.256   c-0.729,0.51-1.239,0.874-1.529,1.092c-1.384,1.021-2.659,2.13-3.823,3.332c-1.166,1.202-2.294,2.422-3.386,3.659l-3.605,4.26   c-2.55,2.914-4.79,5.991-6.718,9.231c-1.93,3.241-3.951,6.5-6.063,9.777c-1.384,2.113-2.769,4.188-4.151,6.227   c-1.384,2.04-2.804,4.042-4.26,6.008c-0.365,0.583-0.802,1.075-1.311,1.475c-0.51,0.401-1.13,0.638-1.857,0.71   c-0.729,0.072-1.439,0.09-2.13,0.055c-0.693-0.038-1.403-0.055-2.13-0.055c-2.332,0-3.806-0.017-4.424-0.055   c-0.62-0.036-1.038-0.126-1.256-0.273c-0.365-0.437-0.529-1.019-0.492-1.748c0.036-0.727,0.345-1.42,0.928-2.075   c2.33-2.767,4.387-5.735,6.172-8.903c1.784-3.168,3.659-6.281,5.625-9.34c1.164-1.893,2.294-3.75,3.387-5.571   c1.092-1.819,2.22-3.641,3.386-5.462c1.164-1.674,2.275-3.403,3.332-5.188c1.055-1.784,2.166-3.55,3.332-5.298   c0.364-0.582,0.727-1.183,1.092-1.802c0.364-0.618,0.656-1.256,0.874-1.912c0.145-0.437,0.254-1.019,0.328-1.748   c0.072-0.727,0.219-1.42,0.437-2.075c0.218-0.656,0.509-1.202,0.874-1.639c0.363-0.437,0.945-0.546,1.748-0.328   c0.145,0.073,0.454,0.109,0.929,0.109c0.473,0,1-0.036,1.584-0.109c1.529-0.146,2.767-0.254,3.714-0.328   c0.946-0.071,1.675-0.109,2.185-0.109c0.508,0,0.874,0.055,1.092,0.164c0.218,0.109,0.399,0.237,0.546,0.382   c1.382,1.529,1.128,3.97-0.765,7.319c-0.219,0.365-0.366,0.638-0.437,0.819c-0.074,0.183-0.147,0.347-0.219,0.492l-0.109,0.219   c0.218-0.437,0.636-0.855,1.256-1.256c0.618-0.399,1.109-0.782,1.475-1.147c0.582-0.437,1.128-0.855,1.638-1.256   c0.509-0.399,1.055-0.782,1.639-1.147c1.456-0.946,2.95-1.784,4.479-2.513c1.529-0.727,3.13-1.273,4.806-1.638   c1.093-0.219,2.257-0.273,3.496-0.164c1.238,0.109,2.385,0.401,3.441,0.874c1.055,0.475,1.947,1.147,2.676,2.021   c0.727,0.874,1.128,2.003,1.202,3.386c0.145,2.55-0.273,4.953-1.256,7.209c-0.983,2.258-2.167,4.37-3.55,6.336   c-1.529,2.185-3.078,4.353-4.643,6.5c-1.567,2.149-3.078,4.315-4.533,6.5c-2.113,2.987-3.97,6.046-5.571,9.176   c-0.147,0.365-0.382,0.802-0.71,1.311c-0.328,0.51-0.601,1.057-0.819,1.639c-0.219,0.584-0.328,1.13-0.328,1.639   c0,0.51,0.218,0.912,0.655,1.202c0.8,0.51,1.765,0.546,2.895,0.109c1.128-0.437,2.057-0.836,2.786-1.202   c2.33-1.311,4.387-3.021,6.172-5.134c1.783-2.111,3.513-4.187,5.188-6.227c0.801-0.874,1.529-1.765,2.185-2.677   c0.655-0.91,1.311-1.874,1.966-2.895c0.655-0.946,1.256-1.912,1.802-2.895c0.546-0.983,1.219-1.874,2.021-2.676   c0.363-0.363,0.836-0.637,1.42-0.819c0.582-0.181,1.019,0.019,1.311,0.601c0.363,0.802,0.437,1.584,0.218,2.349   c-0.218,0.765-0.583,1.529-1.092,2.294c-0.51,0.765-1.057,1.493-1.639,2.185c-0.583,0.693-1.092,1.294-1.529,1.803   c-2.403,2.769-4.79,5.59-7.155,8.466c-2.368,2.878-4.971,5.48-7.811,7.811c-2.04,1.676-4.388,3.132-7.045,4.37   C242.965,117.826,240.289,118.373,237.595,118.228z"/>
	<path fill="#4C4D4F" d="M271.676,116.37c-2.258-0.582-4.26-1.71-6.008-3.386c-1.748-1.674-2.695-3.75-2.84-6.227   c-0.074-1.382,0-2.821,0.218-4.315c0.219-1.492,0.509-2.931,0.874-4.315c0.509-2.475,1.382-4.952,2.622-7.428   c2.475-4.878,5.752-9.285,9.832-13.218c2.256-2.111,4.515-4.042,6.773-5.79c1.382-1.093,2.857-2.147,4.424-3.168   c1.565-1.019,3.185-1.929,4.861-2.731c1.674-0.801,3.386-1.456,5.134-1.966c1.748-0.509,3.531-0.801,5.353-0.874   c2.038-0.072,4.042,0.218,6.008,0.874c1.675,0.655,3.059,1.821,4.151,3.496c1.529,2.403,2.146,4.88,1.856,7.428   c-0.292,2.55-0.802,5.098-1.529,7.646c-1.384,5.099-3.604,9.979-6.664,14.638c-3.059,4.661-6.772,8.558-11.142,11.688   c-2.695,1.895-5.645,3.605-8.848,5.134c-3.206,1.529-6.445,2.512-9.723,2.949c-0.874,0.074-1.767,0.092-2.676,0.055   C273.441,116.826,272.55,116.662,271.676,116.37z M280.743,110.69c2.693-1.164,5.042-2.84,7.046-5.025   c2.002-2.185,3.805-4.441,5.407-6.773c0.582-0.8,1.109-1.601,1.584-2.403c0.473-0.8,0.964-1.601,1.475-2.403   c1.238-1.966,2.385-4.004,3.441-6.117c1.055-2.111,2.057-4.223,3.004-6.336c0.582-1.529,1.128-2.985,1.639-4.37   c0.508-1.382,0.836-2.912,0.983-4.588c0.072-0.945-0.055-1.983-0.382-3.113c-0.328-1.128-1.002-1.874-2.021-2.239   c-1.311-0.364-2.586-0.145-3.823,0.655c-1.239,0.802-2.294,1.603-3.168,2.403c-1.021,1.021-2.04,1.985-3.059,2.895   c-1.021,0.911-1.966,1.875-2.84,2.895c-1.895,2.04-3.643,4.188-5.243,6.445c-1.603,2.258-3.096,4.552-4.479,6.882   c-1.239,2.04-2.367,4.134-3.386,6.281c-1.021,2.149-1.966,4.315-2.84,6.5c-0.437,1.093-0.819,2.441-1.147,4.042   c-0.328,1.603-0.092,2.95,0.71,4.042c0.509,0.655,1.237,1.057,2.185,1.202c0.946,0.146,1.784,0.146,2.513,0   C279.067,111.345,279.869,111.055,280.743,110.69z"/>
	<path fill="#4C4D4F" d="M359.502,116.589c-2.112-0.145-4.17-0.437-6.172-0.874c-2.004-0.437-3.915-1.164-5.734-2.185   c-1.748-0.946-3.133-2.53-4.151-4.752c-1.021-2.221-1.529-4.479-1.529-6.773s0.563-4.351,1.693-6.172   c1.128-1.819,2.966-2.876,5.517-3.168c1.819-0.218,3.477,0.256,4.97,1.42c1.492,1.166,2.458,2.586,2.896,4.26   c0.145,0.874,0.218,1.748,0.218,2.622s-0.292,1.712-0.874,2.512c-0.437,0.656-1.021,1.384-1.747,2.185   c-0.729,0.802-0.912,1.712-0.547,2.731c0.364,0.802,1.109,1.512,2.239,2.13c1.129,0.62,2.093,1.002,2.896,1.147   c1.237,0.219,2.458,0.311,3.659,0.273c1.202-0.036,2.421-0.126,3.659-0.273c4.733-0.508,9.139-2.185,13.219-5.025   c2.256-1.529,4.332-3.277,6.227-5.243c1.893-1.966,3.676-4.059,5.353-6.281c1.674-2.221,3.239-4.515,4.697-6.882   c1.456-2.366,2.84-4.678,4.15-6.937c2.257-3.859,4.515-7.664,6.773-11.416c2.256-3.75,4.55-7.519,6.882-11.306   c1.675-2.912,3.441-5.752,5.298-8.521c1.857-2.767,3.878-5.424,6.063-7.975c2.112-2.475,4.261-4.788,6.445-6.937   c2.185-2.147,4.66-4.059,7.429-5.735c2.111-1.238,4.296-2.42,6.554-3.55c2.257-1.128,4.624-1.874,7.101-2.24   c0.509-0.071,1.219-0.126,2.131-0.164c0.909-0.036,1.729,0.038,2.457,0.218c0.728,0.183,1.219,0.511,1.476,0.983   c0.254,0.475,0.017,1.147-0.711,2.021c-0.437,0.51-0.966,0.874-1.584,1.092c-0.619,0.218-1.22,0.51-1.802,0.874   c-1.603,1.021-3.113,2.204-4.533,3.55c-1.421,1.348-2.75,2.75-3.987,4.206c-4.588,5.243-8.63,10.961-12.126,17.15   c-3.495,6.191-6.955,12.344-10.378,18.461c-1.021,1.748-2.004,3.496-2.949,5.243c-0.947,1.748-1.931,3.533-2.949,5.353   c-2.769,5.025-6.136,9.632-10.104,13.818c-3.971,4.189-8.356,7.848-13.163,10.979c-4.225,2.695-8.723,4.735-13.491,6.118   c-4.771,1.384-9.596,2.332-14.475,2.84c-1.165,0.147-2.331,0.237-3.495,0.273C361.832,116.681,360.666,116.662,359.502,116.589z    M426.575,116.807c-0.656-0.072-1.312-0.126-1.967-0.164c-0.655-0.036-1.349-0.126-2.075-0.273c-1.748-0.363-3.479-0.8-5.189-1.311   c-1.712-0.509-3.369-1.202-4.97-2.076c-1.166-0.655-2.496-1.584-3.987-2.786c-1.493-1.202-2.495-2.458-3.004-3.769   c-0.147-0.29-0.273-0.582-0.383-0.874c-0.109-0.29-0.237-0.546-0.382-0.765c-0.365-0.727-0.401-1.475-0.109-2.239   c0.29-0.765,0.727-1.219,1.311-1.366c1.237-0.218,2.185,0.328,2.841,1.639c0.363,0.729,0.945,1.567,1.747,2.513   c0.801,0.947,1.529,1.676,2.186,2.185c2.256,1.748,4.732,2.695,7.428,2.84c2.693,0.146,5.353-0.236,7.975-1.147   c2.621-0.91,5.079-2.221,7.373-3.933c2.294-1.71,4.206-3.55,5.735-5.517c1.456-1.966,2.786-4.187,3.987-6.664   c1.201-2.475,2.057-5.025,2.567-7.647c0.509-2.622,0.601-5.243,0.272-7.865c-0.327-2.622-1.256-5.025-2.785-7.21   c-1.458-2.111-3.369-3.586-5.735-4.424c-2.367-0.836-4.716-1.401-7.046-1.693c-2.769-0.219-3.533-1.347-2.294-3.387   c0.363-0.582,0.801-0.874,1.312-0.874c5.024-0.364,9.867-1.401,14.528-3.114c4.659-1.71,8.701-4.569,12.125-8.575   c0.946-1.019,1.766-2.147,2.458-3.386c0.691-1.237,1.328-2.475,1.912-3.714c1.311-2.767,1.966-5.553,1.966-8.357   c0-2.803-0.528-5.424-1.584-7.865c-1.057-2.439-2.641-4.605-4.752-6.5c-2.112-1.893-4.625-3.313-7.537-4.26   c-3.569-1.093-7.265-1.565-11.088-1.42c-3.823,0.147-7.556,0.51-11.196,1.092c-3.06,0.511-6.082,1.202-9.067,2.076   c-2.987,0.874-5.898,1.931-8.739,3.168c-5.243,2.185-10.014,5.08-14.31,8.685c-4.298,3.605-8.084,7.739-11.361,12.398   c-1.603,2.185-2.913,4.552-3.933,7.101c-1.021,2.55-1.676,5.172-1.966,7.865c-0.219,1.895-0.219,3.97,0,6.227   c0.218,2.258,1.092,4.115,2.621,5.571c1.748,1.603,3.586,2.477,5.517,2.622c1.929,0.147,3.859-0.145,5.79-0.874   c1.929-0.727,3.805-1.693,5.626-2.895c1.819-1.202,3.495-2.312,5.024-3.332c0.728-0.509,1.529-0.8,2.403-0.874   c0.874-0.072,1.311,0.546,1.311,1.857c-0.073,1.166-0.638,2.185-1.692,3.059c-1.057,0.874-1.985,1.603-2.786,2.185   c-1.603,1.092-3.241,2.185-4.915,3.277c-1.677,1.092-3.405,2.059-5.189,2.895c-1.785,0.838-3.623,1.475-5.517,1.912   c-1.895,0.437-3.86,0.584-5.898,0.437c-3.788-0.218-7.046-1.51-9.777-3.878c-2.73-2.366-4.424-5.443-5.079-9.23   c-0.292-1.893-0.365-3.895-0.219-6.008c0.146-2.111,0.473-4.113,0.983-6.008c0.655-2.548,1.601-5.134,2.84-7.756   c1.164-2.33,2.494-4.588,3.987-6.772c1.492-2.185,3.223-4.151,5.188-5.899c1.894-1.674,3.859-3.403,5.899-5.189   c2.038-1.784,4.151-3.332,6.336-4.643c1.893-1.164,3.823-2.311,5.789-3.441c1.967-1.128,4.005-2.13,6.118-3.004   c4.15-1.819,8.373-3.258,12.671-4.315c4.297-1.055,8.63-1.947,13-2.676c2.329-0.363,4.732-0.637,7.21-0.819   c2.475-0.181,4.878-0.09,7.209,0.273c0.219,0.073,0.655,0.128,1.312,0.164c0.655,0.038,1.347,0.128,2.075,0.273   c2.403,0.292,4.823,0.71,7.265,1.256c2.438,0.546,4.787,1.294,7.046,2.24c2.256,0.947,4.387,2.13,6.39,3.55   c2.003,1.42,3.805,3.151,5.408,5.188c2.985,3.714,4.604,7.811,4.86,12.29c0.255,4.479-0.491,8.867-2.239,13.163   c-0.874,2.258-2.113,4.279-3.714,6.063c-1.603,1.785-3.424,3.332-5.462,4.643c-2.769,1.821-5.809,3.241-9.121,4.26   c-3.315,1.021-6.573,1.931-9.777,2.731c2.257,1.458,4.37,3.151,6.336,5.08c1.966,1.931,3.567,4.134,4.807,6.609   c1.164,2.55,1.911,5.172,2.239,7.865c0.328,2.695,0.29,5.39-0.109,8.083c-0.401,2.695-1.166,5.281-2.294,7.756   c-1.13,2.477-2.604,4.771-4.424,6.882c-1.967,2.332-4.225,4.26-6.773,5.79c-3.059,1.748-6.354,3.059-9.886,3.933   C433.692,116.589,430.143,116.952,426.575,116.807z"/>
	<path fill="#4C4D4F" d="M446.346,115.824c-0.437-1.019-0.29-1.893,0.438-2.622c0.729-0.727,1.493-1.311,2.294-1.748   c0.947-0.582,1.911-1.147,2.895-1.693c0.983-0.546,1.947-1.183,2.895-1.912c1.967-1.529,3.77-3.258,5.408-5.189   c1.638-1.929,3.148-3.949,4.533-6.063c1.092-1.601,2.201-3.149,3.331-4.643c1.129-1.492,2.24-3.04,3.332-4.643   c1.093-1.675,2.147-3.332,3.168-4.971c1.02-1.638,2.075-3.294,3.168-4.97c1.311-2.038,2.475-4.132,3.496-6.281   c1.019-2.147,2.146-4.242,3.386-6.281c0.582-1.019,1.219-1.784,1.912-2.294c0.691-0.509,1.62-0.363,2.785,0.437   c2.549,1.676,5.17,2.367,7.865,2.076c2.693-0.291,5.425-0.836,8.193-1.639c0.8-0.219,1.565-0.181,2.294,0.109   c0.727,0.292,1.055,0.947,0.983,1.966c-0.074,1.021-0.547,1.985-1.421,2.895c-0.873,0.912-1.603,1.731-2.185,2.458   c-0.874,1.021-1.712,2.021-2.513,3.004c-0.802,0.983-1.603,1.985-2.403,3.004c-3.205,4.298-6.081,8.63-8.63,13   c-0.802,1.311-1.548,2.622-2.239,3.933c-0.692,1.311-1.329,2.622-1.911,3.933c-0.219,0.365-0.546,1.075-0.983,2.13   c-0.437,1.057-0.802,2.167-1.093,3.332c-0.291,1.166-0.42,2.223-0.382,3.168c0.036,0.947,0.454,1.529,1.256,1.748   c0.801,0.218,1.584,0.201,2.349-0.055c0.765-0.254,1.511-0.618,2.239-1.092c0.728-0.473,1.401-1.019,2.021-1.639   c0.618-0.618,1.183-1.183,1.693-1.693c2.256-2.33,4.314-4.842,6.172-7.538c1.856-2.693,3.731-5.315,5.626-7.865   c0.363-0.508,0.854-1.201,1.475-2.075c0.617-0.874,1.292-1.273,2.021-1.202c0.874,0.073,1.257,0.492,1.147,1.256   s-0.42,1.603-0.929,2.512c-0.511,0.912-1.075,1.767-1.693,2.567c-0.619,0.802-1.038,1.311-1.256,1.529   c-1.021,1.311-2.04,2.604-3.059,3.878c-1.021,1.275-2.04,2.531-3.06,3.769c-0.802,1.092-1.638,2.204-2.512,3.332   c-0.874,1.13-1.748,2.204-2.622,3.222c-1.895,2.185-3.987,4.206-6.281,6.063s-4.935,3.078-7.92,3.66   c-1.021,0.146-2.059,0.183-3.113,0.109c-1.057-0.072-2.021-0.29-2.895-0.655c-0.874-0.364-1.657-0.891-2.349-1.584   c-0.693-0.691-1.185-1.584-1.475-2.676c-0.365-1.311-0.511-2.603-0.438-3.878c0.072-1.273,0.29-2.53,0.655-3.769   c0.364-1.237,0.801-2.475,1.312-3.714c0.509-1.237,1.055-2.403,1.639-3.496c1.601-3.277,3.677-6.336,6.227-9.176   c2.548-2.84,5.097-5.534,7.646-8.083c0.437-0.437,1.109-0.983,2.021-1.639c0.91-0.655,1.476-1.273,1.693-1.857   c0.219-0.437,0.235-0.71,0.055-0.819c-0.183-0.109-0.437-0.164-0.765-0.164c-0.327,0-0.692,0.038-1.092,0.109   c-0.401,0.073-0.711,0.109-0.929,0.109c-0.729,0-1.42-0.181-2.076-0.546c-0.655-0.363-1.348-0.618-2.075-0.765   c-1.021-0.145-1.803,0.074-2.349,0.656c-0.546,0.583-1.075,1.275-1.584,2.075c-0.655,1.021-1.311,2.076-1.966,3.168   c-0.656,1.092-1.312,2.185-1.967,3.277c-1.384,2.332-2.785,4.606-4.206,6.827c-1.42,2.223-2.932,4.424-4.533,6.609   c-0.874,1.239-1.785,2.441-2.73,3.605c-0.947,1.166-1.931,2.332-2.949,3.496c-0.292,0.292-0.839,0.912-1.639,1.857   c-0.803,0.948-1.767,2.004-2.896,3.168c-1.13,1.166-2.349,2.332-3.659,3.496c-1.311,1.166-2.55,2.149-3.714,2.95   c-1.164,0.802-2.221,1.275-3.168,1.42C447.367,116.952,446.711,116.626,446.346,115.824z"/>
	<path fill="#4C4D4F" d="M503.262,116.479c-1.239-0.437-2.332-1.311-3.277-2.622c-0.655-1.019-1.093-2.202-1.311-3.55   c-0.219-1.347-0.29-2.603-0.219-3.769c0.29-2.185,0.891-4.296,1.803-6.336c0.909-2.038,1.874-4.004,2.895-5.899   c1.748-3.277,3.641-6.426,5.681-9.449c2.038-3.021,4.004-6.134,5.898-9.34c0.801-1.237,1.584-2.494,2.349-3.769   c0.765-1.273,1.219-2.676,1.365-4.206c0.072-0.508,0.164-1.038,0.273-1.584c0.109-0.546,0.345-1,0.71-1.365   c0.801-0.801,2.021-1.273,3.66-1.42c1.638-0.145,2.966-0.254,3.986-0.328c0.509-0.072,1.093-0.126,1.748-0.164   c0.655-0.036,1.273,0,1.857,0.109c0.582,0.109,1.092,0.328,1.529,0.656c0.437,0.328,0.691,0.857,0.765,1.584   c0.071,0.947-0.055,1.912-0.383,2.895c-0.327,0.983-0.765,1.931-1.311,2.84c-0.546,0.912-1.146,1.821-1.803,2.731   c-0.655,0.912-1.201,1.731-1.639,2.458c-2.112,3.277-4.188,6.554-6.227,9.832c-2.039,3.277-4.041,6.627-6.008,10.05   c-0.146,0.292-0.456,0.819-0.929,1.584c-0.475,0.765-0.982,1.639-1.529,2.622c-0.546,0.983-1.075,2.004-1.584,3.059   c-0.51,1.057-0.856,2.04-1.037,2.95c-0.183,0.911-0.147,1.657,0.108,2.239c0.255,0.584,0.819,0.874,1.693,0.874   c0.946,0.073,1.874-0.126,2.786-0.601c0.909-0.473,1.783-1.073,2.621-1.802c0.837-0.727,1.62-1.511,2.349-2.349   c0.728-0.836,1.383-1.584,1.967-2.239c1.893-2.038,3.659-4.151,5.298-6.336c1.639-2.185,3.185-4.441,4.643-6.773   c0.219-0.437,0.509-1.092,0.874-1.966c0.363-0.874,0.765-1.729,1.201-2.567c0.438-0.836,0.946-1.511,1.53-2.021   c0.582-0.509,1.237-0.618,1.966-0.328c0.655,0.292,0.782,1.057,0.383,2.294c-0.401,1.239-1.147,2.731-2.24,4.479   c-1.092,1.748-2.386,3.643-3.878,5.681c-1.493,2.04-2.968,3.951-4.424,5.735c-1.458,1.786-2.75,3.332-3.878,4.643   c-1.13,1.311-1.876,2.149-2.239,2.513c-0.874,0.874-2.04,1.931-3.496,3.168c-1.457,1.239-3.004,2.386-4.643,3.441   c-1.639,1.057-3.332,1.84-5.079,2.349C506.32,116.988,504.718,116.988,503.262,116.479z M534.94,47.441   c-1.021-0.509-1.802-1.256-2.349-2.24c-0.546-0.983-0.71-2.13-0.491-3.441c0.219-1.164,0.728-2.33,1.529-3.496   c0.801-1.164,1.71-2.111,2.731-2.84c1.164-0.945,2.548-1.42,4.15-1.42c2.403,0,3.969,1.166,4.697,3.496   c0.219,0.947,0.235,1.931,0.055,2.949c-0.183,1.021-0.51,2.004-0.983,2.95c-0.474,0.947-1.092,1.785-1.856,2.513   c-0.765,0.729-1.584,1.275-2.458,1.638c-0.874,0.365-1.748,0.529-2.622,0.492C536.47,48.006,535.668,47.806,534.94,47.441z"/>
	<path fill="#4C4D4F" d="M532.316,116.479c-1.021-0.29-2.039-0.836-3.059-1.639c-1.747-1.311-2.858-2.931-3.331-4.861   c-0.473-1.929-0.582-3.95-0.328-6.063c0.254-2.111,0.782-4.187,1.584-6.227c0.801-2.038,1.639-3.823,2.513-5.353   c2.767-5.17,5.735-10.269,8.902-15.293c3.168-5.025,6.5-9.903,9.996-14.638c1.092-1.311,1.966-2.548,2.621-3.714   c0.219-0.437,0.454-0.946,0.71-1.529c0.255-0.582,0.637-0.983,1.147-1.202c-0.437-0.364-1.093-0.563-1.967-0.601   c-0.873-0.036-1.712-0.071-2.512-0.109c-0.803-0.036-1.494-0.2-2.076-0.492c-0.583-0.29-0.802-0.874-0.655-1.748   c0.146-0.8,0.563-1.347,1.257-1.638c0.69-0.291,1.455-0.454,2.294-0.492c0.836-0.036,1.674,0,2.512,0.109   c0.837,0.109,1.511,0.128,2.021,0.054c1.019-0.145,1.929-0.508,2.73-1.092c0.801-0.582,1.529-1.292,2.186-2.13   c0.655-0.836,1.237-1.71,1.747-2.622c0.509-0.91,0.983-1.765,1.421-2.567c0.8-1.456,1.583-2.912,2.348-4.37   c0.766-1.456,1.476-2.949,2.131-4.479c0.218-0.582,0.437-1.256,0.655-2.021s0.454-1.529,0.71-2.294   c0.254-0.765,0.546-1.492,0.874-2.185c0.327-0.691,0.746-1.256,1.256-1.693c0.582-0.437,1.273-0.727,2.076-0.874   c0.8-0.145,1.639-0.219,2.512-0.219c0.874,0,1.748,0.038,2.622,0.109c0.874,0.073,1.675,0.038,2.403-0.109   c0.874-0.145,1.857-0.235,2.949-0.273c1.093-0.036,1.929,0.456,2.513,1.475c0.363,0.729,0.383,1.548,0.055,2.458   c-0.328,0.912-0.639,1.73-0.929,2.458c-0.584,1.676-1.365,3.277-2.349,4.806s-1.949,3.096-2.895,4.697   c-1.021,1.748-2.223,3.55-3.605,5.407c-1.384,1.857-2.367,3.807-2.949,5.845c0.438,0.146,0.983,0.201,1.639,0.164   c0.655-0.036,1.328-0.072,2.021-0.109c0.69-0.036,1.347-0.036,1.966,0c0.618,0.038,1.147,0.202,1.584,0.492   c0.509,0.437,0.582,1.092,0.219,1.966c-0.365,0.874-0.803,1.458-1.312,1.748c-1.021,0.583-2.167,0.783-3.44,0.601   c-1.275-0.181-2.458-0.235-3.551-0.164c-1.529,0-2.73,0.456-3.604,1.365c-0.874,0.912-1.676,1.985-2.403,3.223   c-3.424,5.535-6.811,11.033-10.159,16.495c-3.351,5.462-6.882,10.888-10.596,16.276c-0.947,1.384-1.821,2.804-2.622,4.26   c-0.803,1.458-1.385,2.987-1.748,4.588c-0.365,1.239-0.401,2.294-0.109,3.168c0.29,0.874,0.765,1.529,1.42,1.966   c0.656,0.437,1.456,0.62,2.403,0.546c0.946-0.072,1.967-0.399,3.059-0.983c1.894-1.019,3.551-2.349,4.971-3.987   c1.42-1.639,2.786-3.294,4.097-4.971c1.601-1.966,3.149-3.95,4.643-5.953c1.492-2.002,3.04-3.987,4.643-5.954   c0.219-0.219,0.637-0.727,1.256-1.529c0.618-0.801,1.293-1.584,2.021-2.349c0.727-0.765,1.438-1.366,2.13-1.803   c0.691-0.437,1.219-0.399,1.584,0.109c0.363,0.583,0.328,1.403-0.109,2.458c-0.437,1.057-1.002,2.149-1.693,3.277   c-0.692,1.13-1.42,2.185-2.185,3.168c-0.765,0.983-1.294,1.657-1.584,2.021c-1.384,1.895-2.858,3.697-4.424,5.407   c-1.567,1.712-3.151,3.405-4.752,5.08c-1.529,1.603-3.223,3.424-5.08,5.462c-1.856,2.04-3.878,3.878-6.063,5.517   s-4.479,2.859-6.882,3.66C537.342,117.389,534.865,117.354,532.316,116.479z"/>
	<path fill="#4C4D4F" d="M567.602,116.37c-2.259-0.582-4.261-1.71-6.009-3.386c-1.748-1.674-2.695-3.75-2.84-6.227   c-0.073-1.382,0-2.821,0.219-4.315c0.218-1.492,0.508-2.931,0.873-4.315c0.509-2.475,1.383-4.952,2.622-7.428   c2.475-4.878,5.752-9.285,9.832-13.218c2.256-2.111,4.515-4.042,6.772-5.79c1.383-1.093,2.857-2.147,4.424-3.168   c1.565-1.019,3.186-1.929,4.861-2.731c1.675-0.801,3.387-1.456,5.134-1.966c1.748-0.509,3.532-0.801,5.354-0.874   c2.038-0.072,4.041,0.218,6.008,0.874c1.675,0.655,3.059,1.821,4.151,3.496c1.529,2.403,2.146,4.88,1.856,7.428   c-0.292,2.55-0.802,5.098-1.529,7.646c-1.384,5.099-3.604,9.979-6.663,14.638c-3.059,4.661-6.773,8.558-11.143,11.688   c-2.695,1.895-5.645,3.605-8.849,5.134c-3.205,1.529-6.444,2.512-9.722,2.949c-0.874,0.074-1.767,0.092-2.677,0.055   C569.366,116.826,568.475,116.662,567.602,116.37z M576.668,110.69c2.693-1.164,5.042-2.84,7.046-5.025   c2.002-2.185,3.805-4.441,5.407-6.773c0.582-0.8,1.109-1.601,1.584-2.403c0.473-0.8,0.965-1.601,1.475-2.403   c1.237-1.966,2.385-4.004,3.441-6.117c1.055-2.111,2.057-4.223,3.004-6.336c0.582-1.529,1.128-2.985,1.639-4.37   c0.509-1.382,0.836-2.912,0.983-4.588c0.071-0.945-0.055-1.983-0.383-3.113c-0.328-1.128-1.002-1.874-2.021-2.239   c-1.312-0.364-2.586-0.145-3.823,0.655c-1.239,0.802-2.295,1.603-3.168,2.403c-1.021,1.021-2.04,1.985-3.06,2.895   c-1.021,0.911-1.966,1.875-2.84,2.895c-1.895,2.04-3.643,4.188-5.243,6.445c-1.603,2.258-3.097,4.552-4.479,6.882   c-1.239,2.04-2.368,4.134-3.387,6.281c-1.021,2.149-1.967,4.315-2.841,6.5c-0.437,1.093-0.818,2.441-1.146,4.042   c-0.328,1.603-0.092,2.95,0.71,4.042c0.509,0.655,1.237,1.057,2.185,1.202c0.946,0.146,1.784,0.146,2.513,0   C574.992,111.345,575.794,111.055,576.668,110.69z"/>
</g>
<g>
</g>
<g>
</g>
<g>
</g>
<g>
</g>
<g>
</g>
<g>
</g>
</svg>